PathFileType	4	(X/Y/Z)	C:\Users\WrightLab\Desktop\Jo\P2_Trial13.trc
DataRate	CameraRate	NumFrames	NumMarkers	Units	OrigDataRate	OrigDataStartFrame	OrigNumFrames
100.00	100.00	       22	19	mm	100.00	497	       567
Frame#	Time	Headset_Front			Headset_Back			Headset_Left			Headset_Right			Left_Shoulder			Right_Shoulder			Sternum			C7			Left Elbow			Right Elbow			Left Wrist			Right Wrist			Left ASIS			Right ASIS			S2			Left Knee			Right Knee			Left Ankle			Right Ankle			
		X1	Y1	Z1	X2	Y2	Z2	X3	Y3	Z3	X4	Y4	Z4	X5	Y5	Z5	X6	Y6	Z6	X7	Y7	Z7	X8	Y8	Z8	X9	Y9	Z9	X10	Y10	Z10	X11	Y11	Z11	X12	Y12	Z12	X13	Y13	Z13	X14	Y14	Z14	X15	Y15	Z15	X16	Y16	Z16	X17	Y17	Z17	X18	Y18	Z18	X19	Y19	Z19	

497	4.960													-54.88885	1499.05933	2491.50781										26.72523	1142.07996	2558.86206				72.52692	900.94098	2546.15259				-213.53943	1113.66821	2444.60449																			
498	4.970													-61.05372	1498.34265	2498.80151										21.42759	1141.29443	2564.56226				68.89633	900.70483	2551.06519				-217.85750	1112.47559	2447.13159																			
499	4.980													-67.81492	1497.99634	2505.83838										16.12786	1140.78894	2570.48145				65.01033	900.04510	2556.88647				-221.98865	1110.92871	2449.43530																			
500	4.990													-74.32513	1497.23035	2512.13916										9.51568	1140.83130	2577.90259				60.33154	900.32910	2562.69873				-226.24249	1110.32141	2451.45728																			
501	5.000													-80.55956	1496.84619	2518.93481										3.48299	1139.85144	2583.12207				55.71541	900.13275	2568.31079				-229.94502	1109.19934	2453.13086																			
502	5.010													-87.64745	1495.69739	2525.73706										-3.40411	1139.27759	2589.79834				50.24610	899.71259	2574.84229				-234.43410	1108.58240	2455.70361																			
503	5.020													-94.33114	1495.38647	2532.22974										-9.74707	1138.90259	2596.15332				44.25883	899.48511	2580.89258				-238.30327	1108.18457	2457.71631																			
504	5.030													-101.41808	1494.55676	2538.75171										-16.90116	1137.79199	2602.15283				38.36315	898.30853	2587.26196				-242.38132	1107.95703	2459.31250																			
505	5.040													-108.57019	1494.07776	2545.32983										-24.07519	1137.38049	2609.37134				32.21647	897.85333	2594.10571				-246.59625	1108.09985	2461.61865																			
506	5.050													-115.56245	1493.09912	2551.76611										-31.76048	1136.47937	2615.34277				25.53907	897.77032	2601.46069				-250.71248	1107.66284	2463.51611																			
507	5.060													-122.32366	1492.37805	2557.46875										-39.34843	1136.04419	2622.74536				18.36464	896.10181	2608.18457				-254.97992	1107.47974	2465.66187																			
508	5.070													-129.45038	1491.32178	2563.53491										-47.28569	1134.57690	2628.79297				11.13018	894.98358	2615.83569				-259.00696	1107.04431	2467.59619																			
509	5.080													-136.40962	1490.94421	2569.67529										-55.09862	1134.32080	2636.32178				3.71886	894.10126	2623.50928				-263.21683	1107.04639	2469.25732																			
510	5.090													-144.09360	1489.96973	2575.32837										-63.76493	1133.72632	2643.32446				-5.23226	893.58398	2631.61768				-267.06604	1106.52881	2471.08130																			
511	5.100													-150.97231	1489.69067	2581.41577										-72.70792	1133.14709	2650.69116				-13.76548	892.95959	2640.48926				-270.92761	1105.86633	2472.84375																			
512	5.110													-158.19604	1489.70117	2586.78784										-81.24300	1132.35376	2658.05688				-22.86245	891.97589	2647.97241				-275.04068	1106.00085	2475.41797																			
513	5.120													-165.45599	1489.00452	2591.85742										-90.70391	1131.73157	2665.31226				-32.25460	891.90314	2657.27539				-279.08228	1106.71240	2477.37695																			
514	5.130													-172.44365	1488.84448	2597.82690										-100.39498	1131.61389	2672.23560				-41.65325	890.86884	2665.40869				-283.12891	1107.16064	2480.13501																			
515	5.140													-179.45686	1488.99792	2602.67822										-109.74091	1131.14624	2679.34253				-52.08695	890.49353	2674.14282																									
516	5.150													-186.84572	1488.89502	2607.11694										-119.70819	1131.01892	2687.05322				-62.49900	890.55011	2683.22485																									
517	5.160																									-129.91881	1131.35181	2693.95337				-73.07733	890.14868	2691.80420																									
518	5.170																									-140.51706	1131.23364	2700.64600				-85.27383	890.66034	2701.73242																									
